<svg width="133" height="52" viewBox="0 0 133 52" fill="none" xmlns="http://www.w3.org/2000/svg">
<path d="M43.72 51C43.6667 51 43.64 50.9733 43.64 50.92L43.672 39.928C43.672 39.8853 43.6933 39.864 43.736 39.864H48.856C48.9093 39.864 48.936 39.8853 48.936 39.928V41.736C48.936 41.7787 48.9147 41.8 48.872 41.8H45.592V44.28H48.872C48.9147 44.28 48.936 44.3067 48.936 44.36L48.952 46.168C48.952 46.2107 48.9253 46.232 48.872 46.232H45.592V50.92C45.592 50.9733 45.5653 51 45.512 51H43.72ZM50.5946 51C50.552 51 50.5306 50.9733 50.5306 50.92L50.5466 39.928C50.5466 39.8853 50.568 39.864 50.6106 39.864H55.7466C55.7893 39.864 55.8106 39.8907 55.8106 39.944V41.736C55.8106 41.7787 55.7893 41.8 55.7466 41.8H52.4666V44.296H55.7466C55.7893 44.296 55.8106 44.3173 55.8106 44.36L55.8266 46.168C55.8266 46.2107 55.8053 46.232 55.7626 46.232H52.4666V49.032H55.7626C55.8053 49.032 55.8266 49.0587 55.8266 49.112V50.936C55.8266 50.9787 55.8053 51 55.7626 51H50.5946ZM57.3134 51C57.2707 51 57.2494 50.9733 57.2494 50.92L57.2814 39.928C57.2814 39.8853 57.3027 39.864 57.3454 39.864H59.2974C59.34 39.864 59.3774 39.8853 59.4094 39.928L60.8654 42.04L62.3214 39.928C62.3534 39.8853 62.3907 39.864 62.4334 39.864H64.4014C64.444 39.864 64.4654 39.8853 64.4654 39.928L64.4974 50.92C64.4974 50.9733 64.476 51 64.4334 51H62.6254C62.5827 51 62.5614 50.9733 62.5614 50.92L62.5454 42.76L60.8654 45.192L59.2014 42.76L59.1854 50.92C59.1854 50.9733 59.164 51 59.1214 51H57.3134ZM65.9231 51C65.8698 51 65.8431 50.9733 65.8431 50.92L65.8591 39.928C65.8591 39.8853 65.8805 39.864 65.9231 39.864H67.7151C67.7578 39.864 67.7791 39.8853 67.7791 39.928L67.7951 50.92C67.7951 50.9733 67.7738 51 67.7311 51H65.9231ZM69.3465 51C69.2612 51 69.2185 50.9627 69.2185 50.888L69.2025 39.992C69.2025 39.9067 69.2452 39.864 69.3305 39.864H70.7705L73.4745 46.168L73.3945 39.992C73.3945 39.9067 73.4425 39.864 73.5385 39.864H75.1225C75.1865 39.864 75.2185 39.9067 75.2185 39.992L75.2345 50.904C75.2345 50.968 75.2078 51 75.1545 51H73.7465L70.9785 45.112L71.0905 50.872C71.0905 50.9573 71.0425 51 70.9465 51H69.3465ZM76.7044 51C76.651 51 76.6244 50.9733 76.6244 50.92L76.6404 39.928C76.6404 39.8853 76.6617 39.864 76.7044 39.864H78.4964C78.539 39.864 78.5604 39.8853 78.5604 39.928L78.5764 50.92C78.5764 50.9733 78.555 51 78.5124 51H76.7044ZM80.1278 51C80.0424 51 79.9998 50.9627 79.9998 50.888L79.9838 39.992C79.9838 39.9067 80.0264 39.864 80.1118 39.864H81.5518L84.2558 46.168L84.1758 39.992C84.1758 39.9067 84.2238 39.864 84.3198 39.864H85.9038C85.9678 39.864 85.9998 39.9067 85.9998 39.992L86.0158 50.904C86.0158 50.968 85.9891 51 85.9358 51H84.5278L81.7598 45.112L81.8718 50.872C81.8718 50.9573 81.8238 51 81.7278 51H80.1278ZM90.3656 51.16C89.7896 51.16 89.2616 51.016 88.7816 50.728C88.3123 50.4293 87.9336 50.04 87.6456 49.56C87.3576 49.0693 87.2136 48.5307 87.2136 47.944L87.2296 42.872C87.2296 42.2853 87.3683 41.752 87.6456 41.272C87.9336 40.792 88.3176 40.408 88.7976 40.12C89.2776 39.832 89.8003 39.688 90.3656 39.688C90.9416 39.688 91.4643 39.832 91.9336 40.12C92.403 40.408 92.7763 40.792 93.0536 41.272C93.3416 41.752 93.4856 42.2853 93.4856 42.872L93.5016 47.944C93.5016 48.5307 93.3576 49.0693 93.0696 49.56C92.7923 50.04 92.4136 50.4293 91.9336 50.728C91.4643 51.016 90.9416 51.16 90.3656 51.16ZM90.3656 49.224C90.6856 49.224 90.963 49.096 91.1976 48.84C91.443 48.5733 91.5656 48.2747 91.5656 47.944L91.5496 42.872C91.5496 42.52 91.4376 42.2213 91.2136 41.976C90.9896 41.7307 90.707 41.608 90.3656 41.608C90.035 41.608 89.7523 41.7307 89.5176 41.976C89.283 42.2107 89.1656 42.5093 89.1656 42.872V47.944C89.1656 48.296 89.283 48.6 89.5176 48.856C89.7523 49.1013 90.035 49.224 90.3656 49.224Z" fill="#F96F0B" fill-opacity="0.77"/>
<path d="M32.5762 29.1914C32.1022 29.1003 31.6146 29.0319 31.1133 28.9863C30.6211 28.9316 30.097 28.8906 29.541 28.8633C28.9941 28.8359 28.4062 28.8223 27.7773 28.8223C27.1576 28.8132 26.4831 28.8086 25.7539 28.8086C25.4076 28.8086 24.9928 28.8132 24.5098 28.8223C24.0358 28.8314 23.5208 28.8542 22.9648 28.8906C22.418 28.9271 21.8529 28.9772 21.2695 29.041C20.6862 29.1139 20.1165 29.2051 19.5605 29.3145C19.7611 28.9043 19.9342 28.3893 20.0801 27.7695C20.2259 27.1406 20.3444 26.4753 20.4355 25.7734C20.5358 25.0716 20.6133 24.3561 20.668 23.627C20.7227 22.8978 20.7637 22.2188 20.791 21.5898C20.8184 20.9609 20.832 20.4186 20.832 19.9629C20.8411 19.498 20.8457 19.179 20.8457 19.0059C20.8457 18.9694 20.8411 18.8281 20.832 18.582C20.832 18.3359 20.8275 18.0169 20.8184 17.625C20.8092 17.2331 20.7956 16.7865 20.7773 16.2852C20.7591 15.7747 20.7318 15.2461 20.6953 14.6992C20.668 14.1523 20.627 13.6009 20.5723 13.0449C20.5267 12.4889 20.4674 11.9648 20.3945 11.4727C20.3307 10.9714 20.2533 10.5247 20.1621 10.1328C20.0801 9.73177 19.9798 9.41276 19.8613 9.17578C20.7546 9.30339 21.6341 9.39909 22.5 9.46289C23.3659 9.51758 24.2044 9.54492 25.0156 9.54492C26.0091 9.54492 26.9388 9.51758 27.8047 9.46289C28.6706 9.4082 29.4271 9.3444 30.0742 9.27148C30.8307 9.18945 31.5189 9.09375 32.1387 8.98438V15.3965C31.61 14.9043 31.1042 14.526 30.6211 14.2617C30.138 13.9974 29.7096 13.8014 29.3359 13.6738C28.8984 13.528 28.4883 13.446 28.1055 13.4277C27.6497 13.4277 27.276 13.487 26.9844 13.6055C26.7018 13.7148 26.4785 13.8607 26.3145 14.043C26.1595 14.2161 26.0547 14.4167 26 14.6445C25.9453 14.8633 25.918 15.0866 25.918 15.3145C25.918 15.5514 25.9499 15.7884 26.0137 16.0254C26.0866 16.2624 26.196 16.4766 26.3418 16.668C26.4876 16.8594 26.6745 17.0189 26.9023 17.1465C27.1393 17.265 27.4173 17.3242 27.7363 17.3242C28.0007 17.3242 28.2422 17.265 28.4609 17.1465C28.6797 17.0189 28.8665 16.8776 29.0215 16.7227C29.2038 16.5495 29.3724 16.349 29.5273 16.1211V21.6855C29.3815 21.3392 29.2083 21.0658 29.0078 20.8652C28.8164 20.6647 28.625 20.5189 28.4336 20.4277C28.2513 20.3275 28.0827 20.2682 27.9277 20.25C27.7819 20.2227 27.6816 20.209 27.627 20.209C27.0345 20.209 26.5924 20.3913 26.3008 20.7559C26.0091 21.1204 25.8633 21.5898 25.8633 22.1641C25.8633 22.5833 25.9089 22.9388 26 23.2305C26.1003 23.5221 26.2279 23.7591 26.3828 23.9414C26.5469 24.1237 26.7337 24.2559 26.9434 24.3379C27.1621 24.4199 27.39 24.4609 27.627 24.4609C27.9915 24.4609 28.3835 24.3789 28.8027 24.2148C29.222 24.0508 29.623 23.832 30.0059 23.5586C30.3978 23.2852 30.7533 22.9753 31.0723 22.6289C31.4004 22.2734 31.6602 21.9134 31.8516 21.5488L32.5762 29.1914ZM91.2559 29.2734C90.9733 29.2279 90.6634 29.196 90.3262 29.1777C89.9889 29.1686 89.638 29.1641 89.2734 29.1641C88.8359 29.1641 88.3893 29.1732 87.9336 29.1914C87.487 29.2188 87.0495 29.2507 86.6211 29.2871C86.1927 29.3236 85.7871 29.3646 85.4043 29.4102C85.0215 29.4557 84.6888 29.4967 84.4062 29.5332C84.7982 28.2116 85.099 26.7988 85.3086 25.2949C85.5273 23.791 85.6367 22.123 85.6367 20.291C85.6367 20.1543 85.6322 19.972 85.623 19.7441C85.623 19.5163 85.6139 19.2702 85.5957 19.0059C85.5775 18.7415 85.5456 18.4772 85.5 18.2129C85.4635 17.9395 85.4043 17.6934 85.3223 17.4746C85.2493 17.2559 85.1536 17.0781 85.0352 16.9414C84.9167 16.8047 84.7708 16.7363 84.5977 16.7363C84.3424 16.7363 84.0918 16.8275 83.8457 17.0098C83.6087 17.1921 83.3945 17.4336 83.2031 17.7344C83.0208 18.0352 82.8704 18.3815 82.752 18.7734C82.6426 19.1654 82.5879 19.571 82.5879 19.9902C82.5879 20.7467 82.6061 21.5169 82.6426 22.3008C82.679 23.0755 82.7383 23.8457 82.8203 24.6113C82.9023 25.377 83.0072 26.1289 83.1348 26.8672C83.2624 27.5964 83.4219 28.2891 83.6133 28.9453C83.4583 28.9362 83.276 28.9225 83.0664 28.9043C82.8841 28.8952 82.6699 28.8861 82.4238 28.877C82.1777 28.8678 81.8952 28.8633 81.5762 28.8633C80.9837 28.8633 80.3001 28.8906 79.5254 28.9453C78.7507 28.9909 77.9121 29.082 77.0098 29.2188C77.1191 28.7083 77.2148 28.084 77.2969 27.3457C77.3789 26.6074 77.4473 25.8053 77.502 24.9395C77.5566 24.0736 77.5977 23.1712 77.625 22.2324C77.6615 21.2845 77.6797 20.3503 77.6797 19.4297C77.6797 18.7461 77.6706 18.0762 77.6523 17.4199C77.6341 16.7637 77.6068 16.1439 77.5703 15.5605C77.543 14.9772 77.502 14.4395 77.4473 13.9473C77.3926 13.4551 77.3288 13.0312 77.2559 12.6758C77.9941 12.8034 78.6777 12.8945 79.3066 12.9492C79.9355 12.9948 80.5052 13.0176 81.0156 13.0176C81.3438 13.0176 81.6354 13.013 81.8906 13.0039C82.1549 12.9857 82.3783 12.9674 82.5605 12.9492C82.7793 12.9219 82.9707 12.8945 83.1348 12.8672C83.0801 13.1497 83.0254 13.4505 82.9707 13.7695C82.9251 14.0885 82.8796 14.4349 82.834 14.8086C83.1348 14.4258 83.4538 14.0931 83.791 13.8105C84.1283 13.5189 84.4655 13.2773 84.8027 13.0859C85.1491 12.8945 85.4909 12.7533 85.8281 12.6621C86.1654 12.5618 86.4844 12.5117 86.7852 12.5117C87.4414 12.5117 88.0065 12.6484 88.4805 12.9219C88.9635 13.1862 89.36 13.6055 89.6699 14.1797C89.9889 14.7539 90.2259 15.4876 90.3809 16.3809C90.5358 17.2741 90.6133 18.3451 90.6133 19.5938C90.6133 20.4505 90.6133 21.321 90.6133 22.2051C90.6224 23.0892 90.6452 23.9551 90.6816 24.8027C90.7181 25.6504 90.7819 26.457 90.873 27.2227C90.9642 27.9792 91.0918 28.6628 91.2559 29.2734Z" fill="#F96F0B"/>
<path d="M47.8887 29.2734C47.6061 29.2279 47.2962 29.196 46.959 29.1777C46.6217 29.1686 46.2708 29.1641 45.9062 29.1641C45.4688 29.1641 45.0221 29.1732 44.5664 29.1914C44.1198 29.2188 43.6823 29.2507 43.2539 29.2871C42.8255 29.3236 42.4199 29.3646 42.0371 29.4102C41.6543 29.4557 41.3216 29.4967 41.0391 29.5332C41.431 28.2116 41.7318 26.7988 41.9414 25.2949C42.1602 23.791 42.2695 22.123 42.2695 20.291C42.2695 20.1543 42.265 19.972 42.2559 19.7441C42.2559 19.5163 42.2467 19.2702 42.2285 19.0059C42.2103 18.7415 42.1784 18.4772 42.1328 18.2129C42.0964 17.9395 42.0371 17.6934 41.9551 17.4746C41.8822 17.2559 41.7865 17.0781 41.668 16.9414C41.5495 16.8047 41.4036 16.7363 41.2305 16.7363C40.9753 16.7363 40.7246 16.8275 40.4785 17.0098C40.2415 17.1921 40.0273 17.4336 39.8359 17.7344C39.6536 18.0352 39.5033 18.3815 39.3848 18.7734C39.2754 19.1654 39.2207 19.571 39.2207 19.9902C39.2207 20.7467 39.2389 21.5169 39.2754 22.3008C39.3118 23.0755 39.3711 23.8457 39.4531 24.6113C39.5352 25.377 39.64 26.1289 39.7676 26.8672C39.8952 27.5964 40.0547 28.2891 40.2461 28.9453C40.0911 28.9362 39.9089 28.9225 39.6992 28.9043C39.5169 28.8952 39.3027 28.8861 39.0566 28.877C38.8105 28.8678 38.528 28.8633 38.209 28.8633C37.6165 28.8633 36.9329 28.8906 36.1582 28.9453C35.3835 28.9909 34.5449 29.082 33.6426 29.2188C33.752 28.7083 33.8477 28.084 33.9297 27.3457C34.0117 26.6074 34.0801 25.8053 34.1348 24.9395C34.1895 24.0736 34.2305 23.1712 34.2578 22.2324C34.2943 21.2845 34.3125 20.3503 34.3125 19.4297C34.3125 18.7461 34.3034 18.0762 34.2852 17.4199C34.2669 16.7637 34.2396 16.1439 34.2031 15.5605C34.1758 14.9772 34.1348 14.4395 34.0801 13.9473C34.0254 13.4551 33.9616 13.0312 33.8887 12.6758C34.627 12.8034 35.3105 12.8945 35.9395 12.9492C36.5684 12.9948 37.138 13.0176 37.6484 13.0176C37.9766 13.0176 38.2682 13.013 38.5234 13.0039C38.7878 12.9857 39.0111 12.9674 39.1934 12.9492C39.4121 12.9219 39.6035 12.8945 39.7676 12.8672C39.7129 13.1497 39.6582 13.4505 39.6035 13.7695C39.5579 14.0885 39.5124 14.4349 39.4668 14.8086C39.7676 14.4258 40.0866 14.0931 40.4238 13.8105C40.7611 13.5189 41.0983 13.2773 41.4355 13.0859C41.7819 12.8945 42.1237 12.7533 42.4609 12.6621C42.7982 12.5618 43.1172 12.5117 43.418 12.5117C44.0742 12.5117 44.6393 12.6484 45.1133 12.9219C45.5964 13.1862 45.9928 13.6055 46.3027 14.1797C46.6217 14.7539 46.8587 15.4876 47.0137 16.3809C47.1686 17.2741 47.2461 18.3451 47.2461 19.5938C47.2461 20.4505 47.2461 21.321 47.2461 22.2051C47.2552 23.0892 47.278 23.9551 47.3145 24.8027C47.3509 25.6504 47.4147 26.457 47.5059 27.2227C47.597 27.9792 47.7246 28.6628 47.8887 29.2734Z" fill="#F694D5"/>
<path d="M60.7676 17.4062C60.7676 17.7891 60.6992 18.1719 60.5625 18.5547C60.4349 18.9375 60.248 19.2839 60.002 19.5938C59.7559 19.8945 59.4505 20.1452 59.0859 20.3457C58.7305 20.5371 58.3294 20.6328 57.8828 20.6328C57.4818 20.6328 57.14 20.5645 56.8574 20.4277C56.5749 20.291 56.3424 20.1133 56.1602 19.8945C55.9779 19.6758 55.8411 19.4251 55.75 19.1426C55.668 18.8509 55.627 18.5547 55.627 18.2539C55.627 17.6159 55.7819 17.0645 56.0918 16.5996C56.1374 16.7546 56.2012 16.873 56.2832 16.9551C56.3743 17.028 56.4564 17.0827 56.5293 17.1191C56.6204 17.1556 56.7116 17.1784 56.8027 17.1875C57.0671 17.1875 57.2357 17.1283 57.3086 17.0098C57.3815 16.8913 57.4271 16.7546 57.4453 16.5996C57.4453 16.4447 57.3861 16.2943 57.2676 16.1484C57.1491 16.0026 56.944 15.9297 56.6523 15.9297C56.5703 15.9297 56.4518 15.9434 56.2969 15.9707C56.151 15.9889 55.9824 16.0436 55.791 16.1348C55.6087 16.2259 55.4219 16.3626 55.2305 16.5449C55.0391 16.7181 54.8613 16.9642 54.6973 17.2832C54.5423 17.5931 54.4147 17.985 54.3145 18.459C54.2142 18.9238 54.1641 19.4889 54.1641 20.1543C54.1641 20.8379 54.2643 21.3939 54.4648 21.8223C54.6654 22.2415 54.9023 22.5697 55.1758 22.8066C55.4583 23.0345 55.7546 23.1895 56.0645 23.2715C56.3743 23.3535 56.6387 23.3945 56.8574 23.3945C57.0488 23.3945 57.2904 23.3626 57.582 23.2988C57.8737 23.2259 58.1608 23.0983 58.4434 22.916C58.735 22.7337 58.9993 22.4831 59.2363 22.1641C59.4733 21.8359 59.6328 21.4167 59.7148 20.9062C59.9609 21.2708 60.1569 21.7083 60.3027 22.2188C60.4486 22.7201 60.5215 23.2441 60.5215 23.791C60.5215 24.5384 60.3802 25.2676 60.0977 25.9785C59.8242 26.6895 59.4323 27.3229 58.9219 27.8789C58.4206 28.4258 57.8145 28.8633 57.1035 29.1914C56.3926 29.5286 55.6087 29.6973 54.752 29.6973C54.1139 29.6973 53.5215 29.5924 52.9746 29.3828C52.4277 29.1823 51.931 28.8997 51.4844 28.5352C51.0469 28.1706 50.6549 27.7422 50.3086 27.25C49.9622 26.7487 49.6706 26.2109 49.4336 25.6367C49.2057 25.0534 49.0326 24.4427 48.9141 23.8047C48.7956 23.1667 48.7363 22.5286 48.7363 21.8906C48.7363 21.1797 48.8138 20.4551 48.9688 19.7168C49.1237 18.9785 49.3424 18.2676 49.625 17.584C49.9167 16.9004 50.2721 16.2578 50.6914 15.6562C51.1107 15.0547 51.5846 14.5352 52.1133 14.0977C52.6419 13.651 53.2253 13.3001 53.8633 13.0449C54.5013 12.7806 55.1803 12.6484 55.9004 12.6484C56.5475 12.6484 57.1172 12.7259 57.6094 12.8809C58.1016 13.0358 58.5299 13.2409 58.8945 13.4961C59.2591 13.7513 59.5599 14.0475 59.7969 14.3848C60.0339 14.7129 60.2253 15.0547 60.3711 15.4102C60.5169 15.7565 60.6172 16.1029 60.6719 16.4492C60.7357 16.7956 60.7676 17.1146 60.7676 17.4062Z" fill="#C24F9B" fill-opacity="0.51"/>
<path d="M75.8887 29.1914C75.7155 29.1732 75.515 29.1549 75.2871 29.1367C75.0957 29.1185 74.8633 29.1048 74.5898 29.0957C74.3255 29.0866 74.0339 29.082 73.7148 29.082C73.2591 29.082 72.7578 29.1003 72.2109 29.1367C71.6732 29.1732 71.1172 29.2415 70.543 29.3418L70.5977 25.5C70.2513 26.8581 69.7409 27.9062 69.0664 28.6445C68.401 29.3828 67.6172 29.752 66.7148 29.752C66.4323 29.752 66.1133 29.7155 65.7578 29.6426C65.4023 29.5697 65.0378 29.4284 64.6641 29.2188C64.2995 29.0182 63.9395 28.7357 63.584 28.3711C63.2376 28.0065 62.9277 27.5371 62.6543 26.9629C62.3809 26.3796 62.1621 25.6777 61.998 24.8574C61.834 24.028 61.752 23.0482 61.752 21.918C61.752 20.3867 61.9069 19.0788 62.2168 17.9941C62.5267 16.9004 62.9232 16.0072 63.4062 15.3145C63.8893 14.6217 64.4225 14.1159 65.0059 13.7969C65.5892 13.4779 66.1589 13.3184 66.7148 13.3184C67.1888 13.3184 67.6172 13.3867 68 13.5234C68.3919 13.651 68.7383 13.8197 69.0391 14.0293C69.3398 14.2298 69.5996 14.4577 69.8184 14.7129C70.0371 14.9681 70.2148 15.2233 70.3516 15.4785C70.3242 15.1686 70.2832 14.8405 70.2285 14.4941C70.1738 14.1387 70.11 13.7741 70.0371 13.4004C70.6296 13.5189 71.2311 13.5964 71.8418 13.6328C72.4525 13.6693 73.0176 13.6875 73.5371 13.6875C74.1569 13.6875 74.6582 13.6738 75.041 13.6465C75.2598 13.6374 75.4603 13.6237 75.6426 13.6055C75.5423 14.0612 75.4512 14.5716 75.3691 15.1367C75.2871 15.7018 75.2142 16.3079 75.1504 16.9551C75.0957 17.5931 75.0501 18.2676 75.0137 18.9785C74.9863 19.6803 74.9727 20.4004 74.9727 21.1387C74.9727 22.515 75.041 23.8958 75.1777 25.2812C75.3145 26.6667 75.5514 27.9701 75.8887 29.1914ZM70.2695 21.3574V19.1426C70.2695 18.8965 70.2559 18.6458 70.2285 18.3906C70.2012 18.1354 70.1374 17.903 70.0371 17.6934C69.946 17.4837 69.8092 17.3151 69.627 17.1875C69.4447 17.0508 69.1986 16.9824 68.8887 16.9824C68.5605 16.9824 68.2871 17.0964 68.0684 17.3242C67.8587 17.5521 67.6855 17.8665 67.5488 18.2676C67.4212 18.6595 67.3301 19.1289 67.2754 19.6758C67.2298 20.2135 67.207 20.8014 67.207 21.4395C67.207 21.804 67.2298 22.1732 67.2754 22.5469C67.3301 22.9206 67.4167 23.2624 67.5352 23.5723C67.6536 23.873 67.8132 24.1191 68.0137 24.3105C68.2142 24.502 68.4603 24.5977 68.752 24.5977C69.0801 24.5977 69.3444 24.4837 69.5449 24.2559C69.7454 24.028 69.8958 23.7454 69.9961 23.4082C70.1055 23.071 70.1784 22.7201 70.2148 22.3555C70.2513 21.9818 70.2695 21.6491 70.2695 21.3574ZM116.604 21.0156C116.604 21.5443 116.562 22.1276 116.48 22.7656C116.398 23.3945 116.262 24.0326 116.07 24.6797C115.879 25.3177 115.619 25.9421 115.291 26.5527C114.963 27.1543 114.553 27.6875 114.061 28.1523C113.577 28.6172 112.999 28.9909 112.324 29.2734C111.65 29.556 110.866 29.6973 109.973 29.6973C109.079 29.6973 108.296 29.5651 107.621 29.3008C106.956 29.0365 106.382 28.6855 105.898 28.248C105.424 27.8014 105.033 27.291 104.723 26.7168C104.413 26.1335 104.167 25.5228 103.984 24.8848C103.802 24.2467 103.674 23.6042 103.602 22.957C103.538 22.3008 103.506 21.681 103.506 21.0977C103.506 20.0677 103.643 19.0605 103.916 18.0762C104.189 17.0827 104.604 16.1986 105.16 15.4238C105.725 14.6491 106.427 14.0247 107.266 13.5508C108.113 13.0768 109.107 12.8398 110.246 12.8398C111.012 12.8398 111.7 12.9583 112.311 13.1953C112.921 13.4232 113.464 13.7376 113.938 14.1387C114.411 14.5397 114.812 15.0091 115.141 15.5469C115.478 16.0846 115.756 16.6543 115.975 17.2559C116.193 17.8574 116.353 18.4818 116.453 19.1289C116.553 19.776 116.604 20.4049 116.604 21.0156ZM111.846 21.4668C111.846 21.2572 111.837 20.9974 111.818 20.6875C111.809 20.3685 111.782 20.0358 111.736 19.6895C111.691 19.3431 111.627 18.9967 111.545 18.6504C111.472 18.304 111.372 17.9941 111.244 17.7207C111.117 17.4473 110.957 17.224 110.766 17.0508C110.583 16.8776 110.365 16.791 110.109 16.791C109.863 16.791 109.649 16.873 109.467 17.0371C109.285 17.2012 109.125 17.4154 108.988 17.6797C108.861 17.944 108.751 18.2448 108.66 18.582C108.578 18.9102 108.51 19.2428 108.455 19.5801C108.41 19.9082 108.373 20.2272 108.346 20.5371C108.327 20.8379 108.318 21.0931 108.318 21.3027C108.318 21.6035 108.341 21.9681 108.387 22.3965C108.432 22.8249 108.519 23.235 108.646 23.627C108.774 24.0189 108.947 24.3561 109.166 24.6387C109.394 24.9121 109.69 25.0488 110.055 25.0488C110.401 25.0488 110.688 24.9212 110.916 24.666C111.153 24.4108 111.34 24.1009 111.477 23.7363C111.613 23.3626 111.709 22.9707 111.764 22.5605C111.818 22.1504 111.846 21.7858 111.846 21.4668Z" fill="#F6BE95"/>
<path d="M103.055 12.4023C102.982 12.8125 102.927 13.2135 102.891 13.6055C102.863 13.9974 102.85 14.3984 102.85 14.8086C102.85 15.2005 102.863 15.597 102.891 15.998C102.927 16.39 102.982 16.7865 103.055 17.1875C102.617 16.9596 102.12 16.791 101.564 16.6816C101.018 16.5723 100.457 16.4857 99.8828 16.4219V17.5977C99.8828 18.6276 99.901 19.6712 99.9375 20.7285C99.974 21.7767 100.033 22.7975 100.115 23.791C100.197 24.7754 100.302 25.7096 100.43 26.5938C100.566 27.4779 100.73 28.2617 100.922 28.9453C100.767 28.9362 100.585 28.9225 100.375 28.9043C100.193 28.8952 99.9785 28.8861 99.7324 28.877C99.4863 28.8678 99.2038 28.8633 98.8848 28.8633C98.2923 28.8633 97.6087 28.8906 96.834 28.9453C96.0592 28.9909 95.2207 29.082 94.3184 29.2188C94.6283 27.4414 94.847 25.5957 94.9746 23.6816C95.1113 21.7585 95.1797 19.8809 95.1797 18.0488V16.4219C94.5599 16.4674 93.9447 16.5404 93.334 16.6406C92.7324 16.7318 92.1628 16.8457 91.625 16.9824C91.6615 16.8822 91.6934 16.75 91.7207 16.5859C91.748 16.4219 91.7663 16.2533 91.7754 16.0801C91.7936 15.9069 91.8027 15.7383 91.8027 15.5742C91.8118 15.4102 91.8164 15.2734 91.8164 15.1641C91.8164 14.6992 91.7982 14.2389 91.7617 13.7832C91.7253 13.3275 91.6797 12.8672 91.625 12.4023C92.0625 12.5846 92.582 12.735 93.1836 12.8535C93.7852 12.9629 94.3958 13.0449 95.0156 13.0996C94.9609 12.3066 94.8971 11.5729 94.8242 10.8984C94.7513 10.224 94.6647 9.61328 94.5645 9.06641C95.3027 9.19401 95.9863 9.2806 96.6152 9.32617C97.2441 9.37174 97.8138 9.39453 98.3242 9.39453C98.6523 9.39453 98.944 9.38997 99.1992 9.38086C99.4635 9.36263 99.6868 9.3444 99.8691 9.32617C100.088 9.30794 100.279 9.28516 100.443 9.25781C100.343 9.69531 100.257 10.2422 100.184 10.8984C100.12 11.5456 100.056 12.2702 99.9922 13.0723C100.594 13.0085 101.159 12.9219 101.688 12.8125C102.225 12.7031 102.681 12.5664 103.055 12.4023Z" fill="#F694D5"/>
<path d="M11 0L12.3471 3.80041H16.7063L13.1796 6.14919L14.5267 9.94959L11 7.60081L7.47329 9.94959L8.82037 6.14919L5.29366 3.80041H9.65292L11 0Z" fill="#F96F0B"/>
<path d="M127 20L128.347 23.8004H132.706L129.18 26.1492L130.527 29.9496L127 27.6008L123.473 29.9496L124.82 26.1492L121.294 23.8004H125.653L127 20Z" fill="#F96F0B"/>
<path d="M6 15L7.34708 18.8004H11.7063L8.17963 21.1492L9.52671 24.9496L6 22.6008L2.47329 24.9496L3.82037 21.1492L0.293661 18.8004H4.65292L6 15Z" fill="#F96F0B"/>
<path d="M121 33L122.347 36.8004H126.706L123.18 39.1492L124.527 42.9496L121 40.6008L117.473 42.9496L118.82 39.1492L115.294 36.8004H119.653L121 33Z" fill="#F96F0B"/>
</svg>
